<svg xmlns="http://www.w3.org/2000/svg" width="116.909" height="40.4" viewBox="0 0 116.909 40.4"><g transform="translate(-49.999 -40.999)"><path d="M8241.919-320.3a3.551,3.551,0,0,1-3.521-3.852,3.547,3.547,0,0,1,3.521-3.848,2.868,2.868,0,0,1,3.118,2.512h-1.271a1.752,1.752,0,0,0-1.832-1.459c-1.574,0-2.233,1.388-2.233,2.795s.659,2.8,2.233,2.8a1.9,1.9,0,0,0,1.878-1.924h1.235a2.993,2.993,0,0,1-.936,2.146,3.016,3.016,0,0,1-2.075.829Zm85.26-3.852A3.549,3.549,0,0,1,8330.7-328a3.553,3.553,0,0,1,3.521,3.848,3.555,3.555,0,0,1-3.521,3.852A3.555,3.555,0,0,1,8327.179-324.153Zm3.507,2.8c1.574,0,2.233-1.392,2.233-2.8s-.659-2.795-2.233-2.795-2.22,1.388-2.22,2.795h-.017C8328.449-322.742,8329.109-321.35,8330.686-321.35Zm-14.2-1.579h1.29c0,1.135.827,1.579,1.861,1.579,1.135,0,1.554-.557,1.554-1.112a.873.873,0,0,0-.605-.909c-.515-.193-1.187-.329-2.194-.605a1.884,1.884,0,0,1-1.624-1.865c0-1.468,1.356-2.161,2.684-2.161,1.534,0,2.822.825,2.822,2.351h-1.288c-.062-.948-.7-1.3-1.587-1.3-.594,0-1.346.214-1.346.957,0,.515.348.8.875.948.111.027,1.74.448,2.121.563a1.945,1.945,0,0,1,1.434,1.878c0,1.648-1.463,2.3-2.929,2.3C8317.877-320.3,8316.512-321.126,8316.482-322.928Zm-29.222-.191v-4.7h1.288v4.281c0,.988.061,2.131,1.728,2.131s1.73-1.143,1.73-2.131v-4.281h1.288v4.7c0,1.88-1.206,2.818-3.019,2.818S8287.261-321.226,8287.261-323.119Zm-8.6-1.034a3.55,3.55,0,0,1,3.525-3.848,3.55,3.55,0,0,1,3.518,3.848,3.553,3.553,0,0,1-3.518,3.852A3.559,3.559,0,0,1,8278.661-324.153Zm1.289,0c0,1.411.655,2.8,2.236,2.8s2.229-1.392,2.229-2.8-.659-2.795-2.229-2.795S8279.95-325.56,8279.95-324.153Zm-5.6,3.683v-2.887l-2.762-4.466h1.493l1.945,3.3,1.913-3.3h1.442l-2.744,4.466v2.887Zm66.177,0-3.377-5.406h-.029v5.406h-1.237l.029-7.348h1.356l3.356,5.41h.021v-5.41h1.237v7.348Zm-16.321,0v-7.348h1.288v7.348Zm-10.607,0-.021-7.348h1.307v7.348Zm-5.291,0-2.453-7.348h1.34l1.842,5.814h.021l1.884-5.814h1.309l-2.513,7.348Zm-8.186,0a2.024,2.024,0,0,1-.2-1.08c0-1.348-.276-1.947-1.464-1.947h-1.893v3.027h-1.287v-7.348h3.521c1.6,0,2.429.743,2.429,1.983a1.782,1.782,0,0,1-1.237,1.853v.025c.442.057,1.093.387,1.093,1.549a3.243,3.243,0,0,0,.413,1.939Zm-3.553-4h2.11c.825,0,1.237-.412,1.237-1.17,0-.94-.607-1.126-1.275-1.126h-2.089Zm-35.035,4v-7.348h3.046c2.263,0,3.241,1.65,3.241,3.67s-.979,3.678-3.241,3.678Zm1.285-1.051h1.265c2.019,0,2.449-1.151,2.449-2.627s-.431-2.623-2.449-2.623h-1.265Zm-8.6,1.051v-7.348h5.29v1.114h-4v1.922h3.71v1.047h-3.71v2.152h4.074v1.114Zm-7.3,0-.01-7.348h5.3v1.114h-4v1.922h3.712v1.047h-3.712v2.152h4.074v1.114Zm-10.58,0-1.821-2.812-1.863,2.812h-1.479l2.606-3.81-2.424-3.538h1.53l1.668,2.594,1.742-2.594h1.438l-2.437,3.538,2.606,3.81Zm-11.348,0v-7.348h5.27v1.114h-4v1.922h3.71v1.047h-3.71v2.152h4.1v1.114Z" transform="translate(-8174.979 401.698)"/><path d="M8293.414-313.919c0-8.135,4.572-14.069,12.494-14.069s12.492,5.933,12.492,14.069-4.589,14.073-12.492,14.073S8293.414-305.784,8293.414-313.919Zm5.524,0c0,4.708,1.939,9.339,6.97,9.339s6.972-4.631,6.972-9.339-1.943-9.335-6.972-9.335S8298.938-318.628,8298.938-313.919Zm-29.142,4.507,5.529-.013c0,3.572,2.969,4.947,6.125,4.947,2.063,0,5.414-.6,5.414-3.343,0-2.885-4.093-3.442-8.039-4.495-4.122-1.093-8.118-2.646-8.118-7.57,0-5.483,5.184-8.115,10.032-8.115,5.6,0,10.743,2.441,10.743,8.659h-5.528c-.188-3.232-2.667-4.057-5.487-4.057-1.88,0-4.248.787-4.248,3.044,0,2.062,1.349,2.387,8.079,4.122,1.953.492,8.081,1.65,8.081,7.761,0,4.924-3.869,8.6-11.163,8.6C8275.28-299.868,8269.722-302.8,8269.8-309.412Zm-44.8,8.778V-327.2h19.855v4.733h-14.328v5.893h13.358v4.618h-13.358v6.584h14.328v4.738Zm111.213,0-7.047-11.8c-.9-1.5-2.83-5.5-3.471-6.827.1,2.309.205,4.922.205,7.867v10.757h-5.412V-327.2h5.674l7.038,11.8c.9,1.5,2.837,5.5,3.476,6.825-.1-2.3-.205-5.192-.205-8.131V-327.2h5.41v26.563Zm-88.992,0V-327.2h10.522c6.769,0,11.3,3.329,11.3,9.3s-4.538,9.3-11.3,9.3h-5v7.966Zm5.523-12.7h5c3.474,0,5.774-1.514,5.774-4.564s-2.3-4.566-5.774-4.566h-5Z" transform="translate(-8175 369)" fill="#10218b"/></g></svg>